<mxfile host="Electron" modified="2023-10-11T07:40:56.990Z" agent="Mozilla/5.0 (Windows NT 10.0; Win64; x64) AppleWebKit/537.36 (KHTML, like Gecko) draw.io/21.5.0 Chrome/112.0.5615.204 Electron/24.5.1 Safari/537.36" etag="Q0CoM9WCtm6n_LFovYbB" version="21.5.0" type="device">
  <diagram name="Página-1" id="VxTtn2o1xTE_VzOddtMQ">
    <mxGraphModel dx="1434" dy="836" grid="1" gridSize="10" guides="1" tooltips="1" connect="1" arrows="1" fold="1" page="1" pageScale="1" pageWidth="827" pageHeight="1169" background="none" math="0" shadow="0">
      <root>
        <mxCell id="0" />
        <mxCell id="1" parent="0" />
        <mxCell id="pQikdh-ZNsHf6MwkF9m7-4" value="" style="edgeStyle=orthogonalEdgeStyle;rounded=0;orthogonalLoop=1;jettySize=auto;html=1;" edge="1" parent="1" target="pQikdh-ZNsHf6MwkF9m7-2">
          <mxGeometry relative="1" as="geometry">
            <mxPoint x="395" y="50" as="sourcePoint" />
          </mxGeometry>
        </mxCell>
        <mxCell id="pQikdh-ZNsHf6MwkF9m7-1" value="Media 100 aleatorios" style="strokeWidth=2;html=1;shape=mxgraph.flowchart.start_2;whiteSpace=wrap;" vertex="1" parent="1">
          <mxGeometry x="330" y="10" width="130" height="50" as="geometry" />
        </mxCell>
        <mxCell id="pQikdh-ZNsHf6MwkF9m7-29" style="edgeStyle=orthogonalEdgeStyle;rounded=0;orthogonalLoop=1;jettySize=auto;html=1;exitX=0.5;exitY=1;exitDx=0;exitDy=0;entryX=0.5;entryY=0;entryDx=0;entryDy=0;" edge="1" parent="1" source="pQikdh-ZNsHf6MwkF9m7-2" target="pQikdh-ZNsHf6MwkF9m7-5">
          <mxGeometry relative="1" as="geometry" />
        </mxCell>
        <mxCell id="pQikdh-ZNsHf6MwkF9m7-2" value="lista ← crearListaAleatorios" style="rounded=1;whiteSpace=wrap;html=1;absoluteArcSize=1;arcSize=14;strokeWidth=2;" vertex="1" parent="1">
          <mxGeometry x="313.75" y="90" width="162.5" height="50" as="geometry" />
        </mxCell>
        <mxCell id="pQikdh-ZNsHf6MwkF9m7-31" style="edgeStyle=orthogonalEdgeStyle;rounded=0;orthogonalLoop=1;jettySize=auto;html=1;exitX=0.5;exitY=1;exitDx=0;exitDy=0;entryX=0.5;entryY=0;entryDx=0;entryDy=0;" edge="1" parent="1" source="pQikdh-ZNsHf6MwkF9m7-5" target="pQikdh-ZNsHf6MwkF9m7-6">
          <mxGeometry relative="1" as="geometry" />
        </mxCell>
        <mxCell id="pQikdh-ZNsHf6MwkF9m7-5" value="tamaño ← nº elementosLista" style="rounded=1;whiteSpace=wrap;html=1;absoluteArcSize=1;arcSize=14;strokeWidth=2;" vertex="1" parent="1">
          <mxGeometry x="296.87" y="170" width="196.25" height="50" as="geometry" />
        </mxCell>
        <mxCell id="pQikdh-ZNsHf6MwkF9m7-32" style="edgeStyle=orthogonalEdgeStyle;rounded=0;orthogonalLoop=1;jettySize=auto;html=1;exitX=0.5;exitY=1;exitDx=0;exitDy=0;entryX=0.5;entryY=0;entryDx=0;entryDy=0;" edge="1" parent="1" source="pQikdh-ZNsHf6MwkF9m7-6" target="pQikdh-ZNsHf6MwkF9m7-8">
          <mxGeometry relative="1" as="geometry" />
        </mxCell>
        <mxCell id="pQikdh-ZNsHf6MwkF9m7-6" value="suma ← 0" style="rounded=1;whiteSpace=wrap;html=1;absoluteArcSize=1;arcSize=14;strokeWidth=2;" vertex="1" parent="1">
          <mxGeometry x="294.88" y="250" width="196.25" height="50" as="geometry" />
        </mxCell>
        <mxCell id="pQikdh-ZNsHf6MwkF9m7-7" value="" style="edgeStyle=orthogonalEdgeStyle;rounded=0;orthogonalLoop=1;jettySize=auto;html=1;" edge="1" parent="1" source="pQikdh-ZNsHf6MwkF9m7-8" target="pQikdh-ZNsHf6MwkF9m7-17">
          <mxGeometry relative="1" as="geometry" />
        </mxCell>
        <mxCell id="pQikdh-ZNsHf6MwkF9m7-8" value="i ← 1" style="rounded=1;whiteSpace=wrap;html=1;absoluteArcSize=1;arcSize=14;strokeWidth=2;" vertex="1" parent="1">
          <mxGeometry x="343" y="350" width="100" height="40" as="geometry" />
        </mxCell>
        <mxCell id="pQikdh-ZNsHf6MwkF9m7-9" value="" style="edgeStyle=orthogonalEdgeStyle;rounded=0;orthogonalLoop=1;jettySize=auto;html=1;" edge="1" parent="1" source="pQikdh-ZNsHf6MwkF9m7-10" target="pQikdh-ZNsHf6MwkF9m7-12">
          <mxGeometry relative="1" as="geometry" />
        </mxCell>
        <mxCell id="pQikdh-ZNsHf6MwkF9m7-10" value="i &amp;lt;= tamaño" style="strokeWidth=2;html=1;shape=mxgraph.flowchart.decision;whiteSpace=wrap;" vertex="1" parent="1">
          <mxGeometry x="335" y="450" width="116" height="60" as="geometry" />
        </mxCell>
        <mxCell id="pQikdh-ZNsHf6MwkF9m7-11" style="edgeStyle=orthogonalEdgeStyle;rounded=0;orthogonalLoop=1;jettySize=auto;html=1;exitX=0.5;exitY=1;exitDx=0;exitDy=0;entryX=0.5;entryY=1;entryDx=0;entryDy=0;" edge="1" parent="1" source="pQikdh-ZNsHf6MwkF9m7-12">
          <mxGeometry relative="1" as="geometry">
            <mxPoint x="589" y="520" as="targetPoint" />
          </mxGeometry>
        </mxCell>
        <mxCell id="pQikdh-ZNsHf6MwkF9m7-12" value="suma ← suma + elemento(i)" style="rounded=1;whiteSpace=wrap;html=1;absoluteArcSize=1;arcSize=14;strokeWidth=2;" vertex="1" parent="1">
          <mxGeometry x="311.5" y="550" width="163" height="40" as="geometry" />
        </mxCell>
        <mxCell id="pQikdh-ZNsHf6MwkF9m7-13" style="edgeStyle=orthogonalEdgeStyle;rounded=0;orthogonalLoop=1;jettySize=auto;html=1;entryX=1;entryY=0.5;entryDx=0;entryDy=0;entryPerimeter=0;" edge="1" parent="1" target="pQikdh-ZNsHf6MwkF9m7-17">
          <mxGeometry relative="1" as="geometry">
            <Array as="points">
              <mxPoint x="589" y="415" />
            </Array>
            <mxPoint x="589" y="480" as="sourcePoint" />
          </mxGeometry>
        </mxCell>
        <mxCell id="pQikdh-ZNsHf6MwkF9m7-14" value="i ← i + 1" style="rounded=1;whiteSpace=wrap;html=1;absoluteArcSize=1;arcSize=14;strokeWidth=2;" vertex="1" parent="1">
          <mxGeometry x="540" y="480" width="100" height="40" as="geometry" />
        </mxCell>
        <mxCell id="pQikdh-ZNsHf6MwkF9m7-15" value="" style="edgeStyle=orthogonalEdgeStyle;rounded=0;orthogonalLoop=1;jettySize=auto;html=1;" edge="1" parent="1" source="pQikdh-ZNsHf6MwkF9m7-17" target="pQikdh-ZNsHf6MwkF9m7-10">
          <mxGeometry relative="1" as="geometry" />
        </mxCell>
        <mxCell id="pQikdh-ZNsHf6MwkF9m7-16" value="" style="edgeStyle=orthogonalEdgeStyle;rounded=0;orthogonalLoop=1;jettySize=auto;html=1;" edge="1" parent="1" source="pQikdh-ZNsHf6MwkF9m7-17" target="pQikdh-ZNsHf6MwkF9m7-10">
          <mxGeometry relative="1" as="geometry" />
        </mxCell>
        <mxCell id="pQikdh-ZNsHf6MwkF9m7-17" value="" style="verticalLabelPosition=bottom;verticalAlign=top;html=1;shape=mxgraph.flowchart.on-page_reference;" vertex="1" parent="1">
          <mxGeometry x="388" y="410" width="10" height="10" as="geometry" />
        </mxCell>
        <mxCell id="pQikdh-ZNsHf6MwkF9m7-18" value="Si" style="text;html=1;strokeColor=none;fillColor=none;align=center;verticalAlign=middle;whiteSpace=wrap;rounded=0;" vertex="1" parent="1">
          <mxGeometry x="388" y="510" width="60" height="30" as="geometry" />
        </mxCell>
        <mxCell id="pQikdh-ZNsHf6MwkF9m7-33" style="edgeStyle=orthogonalEdgeStyle;rounded=0;orthogonalLoop=1;jettySize=auto;html=1;exitX=0.5;exitY=1;exitDx=0;exitDy=0;entryX=0.5;entryY=0;entryDx=0;entryDy=0;" edge="1" parent="1" source="pQikdh-ZNsHf6MwkF9m7-19" target="pQikdh-ZNsHf6MwkF9m7-25">
          <mxGeometry relative="1" as="geometry">
            <Array as="points">
              <mxPoint x="172" y="480" />
            </Array>
          </mxGeometry>
        </mxCell>
        <mxCell id="pQikdh-ZNsHf6MwkF9m7-19" value="No" style="text;html=1;strokeColor=none;fillColor=none;align=center;verticalAlign=middle;whiteSpace=wrap;rounded=0;" vertex="1" parent="1">
          <mxGeometry x="309" y="450" width="60" height="30" as="geometry" />
        </mxCell>
        <mxCell id="pQikdh-ZNsHf6MwkF9m7-21" value="" style="edgeStyle=orthogonalEdgeStyle;rounded=0;orthogonalLoop=1;jettySize=auto;html=1;" edge="1" parent="1" source="pQikdh-ZNsHf6MwkF9m7-22">
          <mxGeometry relative="1" as="geometry">
            <mxPoint x="393" y="780" as="targetPoint" />
          </mxGeometry>
        </mxCell>
        <mxCell id="pQikdh-ZNsHf6MwkF9m7-22" value="media" style="strokeWidth=2;html=1;shape=mxgraph.flowchart.document2;whiteSpace=wrap;size=0.25;" vertex="1" parent="1">
          <mxGeometry x="343" y="670" width="100" height="60" as="geometry" />
        </mxCell>
        <mxCell id="pQikdh-ZNsHf6MwkF9m7-23" value="Fin" style="strokeWidth=2;html=1;shape=mxgraph.flowchart.start_2;whiteSpace=wrap;" vertex="1" parent="1">
          <mxGeometry x="323" y="780" width="140" height="50" as="geometry" />
        </mxCell>
        <mxCell id="pQikdh-ZNsHf6MwkF9m7-35" style="edgeStyle=orthogonalEdgeStyle;rounded=0;orthogonalLoop=1;jettySize=auto;html=1;exitX=0.5;exitY=1;exitDx=0;exitDy=0;entryX=0;entryY=0.5;entryDx=0;entryDy=0;entryPerimeter=0;" edge="1" parent="1" source="pQikdh-ZNsHf6MwkF9m7-25" target="pQikdh-ZNsHf6MwkF9m7-22">
          <mxGeometry relative="1" as="geometry" />
        </mxCell>
        <mxCell id="pQikdh-ZNsHf6MwkF9m7-25" value="media ← suma / tamaño" style="rounded=1;whiteSpace=wrap;html=1;absoluteArcSize=1;arcSize=14;strokeWidth=2;" vertex="1" parent="1">
          <mxGeometry x="90" y="550" width="163" height="40" as="geometry" />
        </mxCell>
      </root>
    </mxGraphModel>
  </diagram>
</mxfile>
